<svg xmlns="http://www.w3.org/2000/svg" viewBox="0 0 381.7 367.1"><title>Asset 2</title><g id="Layer_2" data-name="Layer 2"><g id="Layer_1-2" data-name="Layer 1"><path d="M381.5,146.6c-10.4-16.4-29.3-25.5-48.1-30.5s-38.4-6.6-56.9-12.6a128.9,128.9,0,0,1-63.1-45c-8.7-11.6-15.6-24.9-26.7-34.4S160,9.5,145.1,5.8C120-.3,92.6-3.8,69.2,7,57.7,12.3,48,20.8,39.3,29.9S22.5,49.5,16.5,60.9C5.6,81.8,1.9,105.8.5,129.4c-1.8,30.2.4,61.9,15.7,88,16.3,27.9,45.2,45.5,69.7,66.6s46.7,51,41.5,82.9l254.3.4Z"/></g></g></svg>